<svg width="18" height="23" viewBox="0 0 18 23" fill="none" xmlns="http://www.w3.org/2000/svg">
<path d="M17.2303 10.8045C17.2019 10.6843 17.1443 10.573 17.0625 10.4804C16.9808 10.3879 16.8774 10.3169 16.7616 10.2739L11.3607 8.24798L12.735 1.37329C12.7662 1.21356 12.7445 1.04804 12.6733 0.901709C12.6021 0.755379 12.4852 0.636177 12.3403 0.56209C12.1954 0.488004 12.0304 0.463054 11.8701 0.491005C11.7097 0.518956 11.5629 0.598291 11.4516 0.717039L0.951594 11.967C0.866314 12.0569 0.804621 12.1665 0.772028 12.286C0.739435 12.4055 0.736955 12.5313 0.764812 12.652C0.792669 12.7727 0.849993 12.8846 0.931665 12.9778C1.01334 13.0709 1.11681 13.1424 1.23284 13.1858L6.63566 15.2117L5.26503 22.0789C5.23391 22.2386 5.25559 22.4042 5.32679 22.5505C5.39799 22.6968 5.51485 22.816 5.65974 22.8901C5.80464 22.9642 5.96969 22.9891 6.13001 22.9612C6.29032 22.9332 6.4372 22.8539 6.54847 22.7352L17.0485 11.4852C17.1322 11.3953 17.1926 11.2862 17.2243 11.1675C17.256 11.0489 17.2581 10.9242 17.2303 10.8045ZM7.25347 19.7886L8.23503 14.878C8.27016 14.7038 8.24232 14.5228 8.15648 14.3673C8.07064 14.2117 7.93236 14.0917 7.76628 14.0286L2.81253 12.1677L10.7457 3.66829L9.76503 8.57891C9.7299 8.75307 9.75774 8.93405 9.84358 9.0896C9.92943 9.24515 10.0677 9.36517 10.2338 9.42829L15.1838 11.2845L7.25347 19.7886Z" fill="white"/>
</svg>
