<svg width="17" height="18" viewBox="0 0 17 18" fill="none" xmlns="http://www.w3.org/2000/svg">
<path fill-rule="evenodd" clip-rule="evenodd" d="M8.33333 0.949097C7.57195 0.949097 6.82512 1.15772 6.17396 1.55231L2.00729 4.07731C1.39457 4.4486 0.887935 4.97162 0.536321 5.59584C0.184708 6.22006 -1.19204e-05 6.9244 5.76771e-10 7.64083V12.8842C5.76771e-10 13.9892 0.438987 15.049 1.22039 15.8304C2.00179 16.6118 3.0616 17.0508 4.16667 17.0508H12.5C13.6051 17.0508 14.6649 16.6118 15.4463 15.8304C16.2277 15.049 16.6667 13.9892 16.6667 12.8842V7.64C16.6665 6.92373 16.4817 6.21942 16.1301 5.59539C15.7785 4.97137 15.272 4.44852 14.6594 4.07732L10.4927 1.55232C9.84156 1.15773 9.09472 0.949097 8.33333 0.949097ZM7.03772 2.97768C7.42841 2.74094 7.87651 2.61576 8.33333 2.61576C8.79016 2.61576 9.23825 2.74094 9.62895 2.97768L13.7956 5.50268C14.1632 5.72541 14.4671 6.03912 14.6781 6.41354C14.889 6.7879 14.9999 7.21031 15 7.64V12.8842C15 13.5472 14.7366 14.1831 14.2678 14.6519C13.7989 15.1208 13.163 15.3842 12.5 15.3842H11.6667V12.8842C11.6667 12.0001 11.3155 11.1523 10.6904 10.5271C10.0652 9.90202 9.21739 9.55083 8.33333 9.55083C7.44928 9.55083 6.60143 9.90202 5.97631 10.5271C5.35119 11.1523 5 12.0001 5 12.8842V15.3842H4.16667C3.50363 15.3842 2.86774 15.1208 2.3989 14.6519C1.93006 14.1831 1.66667 13.5472 1.66667 12.8842V7.64083C1.66666 7.21097 1.77749 6.78835 1.98846 6.41381C2.19943 6.03928 2.50341 5.72547 2.87104 5.50269L7.03772 2.97768ZM9.51184 11.7057C9.8244 12.0182 10 12.4421 10 12.8842V15.3842H6.66667V12.8842C6.66667 12.4421 6.84226 12.0182 7.15482 11.7057C7.46738 11.3931 7.8913 11.2175 8.33333 11.2175C8.77536 11.2175 9.19928 11.3931 9.51184 11.7057Z" fill="white"/>
</svg>
